<?xml version="1.0" encoding="UTF-8"?><svg id="_레이어_2" xmlns="http://www.w3.org/2000/svg" xmlns:xlink="http://www.w3.org/1999/xlink" viewBox="0 0 84.88 29.77"><defs><style>.cls-1{fill:url(#_무제_그라디언트_116-5);}.cls-1,.cls-2,.cls-3,.cls-4,.cls-5,.cls-6,.cls-7{stroke-width:0px;}.cls-2{fill:url(#_무제_그라디언트_116);}.cls-3{fill:#397036;}.cls-4{fill:url(#_무제_그라디언트_116-4);}.cls-5{fill:url(#_무제_그라디언트_116-3);}.cls-6{fill:url(#_무제_그라디언트_116-2);}.cls-7{fill:url(#_무제_그라디언트_116-6);}</style><linearGradient id="_무제_그라디언트_116" x1="6.65" y1="20.64" x2="6.65" y2="9.37" gradientUnits="userSpaceOnUse"><stop offset=".01" stop-color="#b0bf63"/><stop offset=".11" stop-color="#a9bc60"/><stop offset=".25" stop-color="#98b757"/><stop offset=".4" stop-color="#7dad4a"/><stop offset=".48" stop-color="#6da843"/><stop offset="1" stop-color="#388039"/></linearGradient><linearGradient id="_무제_그라디언트_116-2" x1="7.83" y1="10.26" x2="13.54" y2="5.28" xlink:href="#_무제_그라디언트_116"/><linearGradient id="_무제_그라디언트_116-3" x1="17.93" y1="20.51" x2="17.93" y2="8.48" xlink:href="#_무제_그라디언트_116"/><linearGradient id="_무제_그라디언트_116-4" x1="11.96" y1="23.92" x2="17.86" y2="18.68" xlink:href="#_무제_그라디언트_116"/><linearGradient id="_무제_그라디언트_116-5" x1="16.48" y1="11.4" x2="7.73" y2="18.89" xlink:href="#_무제_그라디언트_116"/><linearGradient id="_무제_그라디언트_116-6" x1="0" y1="14.89" x2="24.58" y2="14.89" xlink:href="#_무제_그라디언트_116"/></defs><g id="_레이어_1-2"><path class="cls-2" d="m6.39,21.58l-1.01-.85v-10.14l2.55-2.15v11.84l-1.54,1.3Z"/><path class="cls-6" d="m7.93,11.73v-3.29l4.36-3.68,1.95,1.65-6.32,5.32Z"/><path class="cls-5" d="m16.65,21.54v-11.84l1.54-1.3,1.01.85v10.14l-2.55,2.15Z"/><path class="cls-4" d="m12.29,25.22l-1.95-1.65,6.32-5.32v3.29l-4.36,3.68Z"/><path class="cls-1" d="m7.93,20.28v-3.23l8.72-7.34v3.23l-8.72,7.35Z"/><path class="cls-7" d="m12.29,29.77c-.5,0-1-.14-1.44-.41L1.27,23.35c-.79-.5-1.27-1.35-1.27-2.29v-12.34c0-.94.47-1.79,1.27-2.29L10.85.41c.87-.55,2-.55,2.87,0l9.58,6.01c.79.5,1.27,1.35,1.27,2.29v12.34c0,.94-.47,1.79-1.27,2.29l-9.58,6.01c-.44.27-.94.41-1.44.41Zm0-28.65c-.29,0-.58.08-.84.24L1.87,7.38c-.46.29-.74.79-.74,1.34v12.34c0,.55.28,1.05.74,1.34l9.58,6.01c.51.32,1.17.32,1.68,0l9.58-6.01c.46-.29.74-.79.74-1.34v-12.34c0-.55-.28-1.05-.74-1.34L13.13,1.36c-.25-.16-.55-.24-.84-.24Z"/><path class="cls-3" d="m31.69,4.63c-.01.06-.06.13-.14.22-.08.09-.18.18-.28.28-.16.15-.32.29-.48.43-.16.14-.35.29-.57.47l-.55-.64c.18-.14.37-.29.55-.46s.36-.32.52-.48c.17-.16.29-.33.36-.49.07-.16.11-.36.11-.6v-.86h.9v.83c0,.13,0,.24.02.34.01.1.04.19.07.27s.08.16.14.23c.06.07.13.15.23.23.17.14.34.28.51.42.18.13.35.26.51.38l-.51.62c-.14-.1-.28-.21-.44-.33-.16-.12-.32-.25-.48-.38-.12-.1-.22-.18-.31-.26-.08-.08-.14-.14-.16-.2h0Zm-.95,1.72h4.31v2.49h-.88v-1.74h-3.43v-.75Zm4.31-.29h-.88v-3.8h.88v3.8Z"/><path class="cls-3" d="m36.49,6.52h1.71v-.52h-2.54v-.71h5.96v.71h-2.54v.52h1.71v2.25h-4.3v-2.25Zm4.41-4.05v.69h-.75v1h.79v.69h-4.61v-.69h.79v-1h-.75v-.69h4.52Zm-3.54,5.59h2.55v-.83h-2.55v.83Zm.63-3.9h1.29v-1h-1.29v1Z"/><path class="cls-3" d="m43.49,5.9c-.26,0-.49-.04-.69-.12s-.38-.19-.52-.33c-.14-.14-.26-.3-.33-.48-.08-.18-.12-.37-.12-.57v-.39c0-.2.04-.38.12-.57.08-.18.19-.34.33-.48.14-.14.32-.25.52-.33.21-.08.44-.12.69-.12s.49.04.69.12c.21.08.38.19.52.33.14.14.26.3.33.48.08.18.12.37.12.57v.39c0,.2-.04.38-.12.57-.08.18-.19.34-.33.48-.15.14-.32.25-.52.33-.21.08-.44.12-.69.12Zm0-2.64c-.13,0-.25.02-.35.07-.1.04-.19.1-.26.18-.07.07-.13.16-.16.26-.04.1-.06.2-.06.3v.27c0,.11.02.21.06.3.04.1.09.18.16.26.07.08.16.13.26.18.1.04.22.07.35.07s.25-.02.35-.07.19-.1.26-.18c.07-.07.13-.16.16-.26.04-.09.06-.2.06-.3v-.27c0-.1-.02-.2-.06-.3-.04-.1-.09-.18-.16-.26-.07-.08-.16-.13-.26-.18-.1-.04-.22-.07-.35-.07Zm.19,4.68h3.32v.76h-4.21v-2.17h.89v1.41Zm3.16-3.95h.85v.77h-.85v2.13h-.88V2.26h.88v1.74Z"/><path class="cls-3" d="m48.01,2.66h3.36v.76h-1.21v.55c0,.08,0,.16.02.23s.04.14.07.2c.04.06.08.13.14.19.06.07.13.13.23.2.15.11.31.23.48.34.17.12.34.23.52.34l-.48.63c-.15-.1-.3-.2-.44-.3s-.29-.2-.42-.29c-.15-.11-.27-.2-.35-.28-.09-.08-.14-.13-.15-.17h0s-.07.11-.16.2-.22.2-.38.33c-.15.12-.3.24-.46.36s-.32.24-.5.36l-.52-.65c.22-.15.44-.3.63-.46.2-.15.37-.3.52-.43.12-.11.22-.23.28-.36.07-.13.1-.29.1-.46v-.55h-1.27v-.76Zm1.84,5.28h3.36v.76h-4.25v-2.18h.89v1.43Zm2.37-3.28h-1.04v-.76h1.04v-1.65h.88v4.63h-.88v-2.23Z"/><path class="cls-3" d="m54.03,2.65h3.36v.75h-1.21v.43c0,.08,0,.16.02.23s.04.14.07.2c.04.07.08.13.14.19.06.06.13.13.23.2.15.11.31.23.48.34.17.12.34.23.52.34l-.47.62c-.31-.21-.6-.4-.86-.59-.15-.11-.27-.2-.36-.27-.09-.07-.14-.13-.15-.17h0s-.07.11-.16.2-.22.2-.38.33c-.15.12-.3.24-.46.36s-.32.24-.5.36l-.52-.64c.22-.15.44-.3.63-.46.2-.15.37-.3.52-.43.12-.11.22-.23.28-.36s.1-.29.1-.46v-.43h-1.27v-.75Zm3.08,6.31c-.29,0-.56-.03-.81-.08-.25-.06-.46-.14-.64-.25-.18-.11-.33-.24-.43-.39-.1-.15-.16-.33-.16-.53v-.31c0-.2.05-.37.16-.53s.25-.28.43-.39c.18-.11.4-.19.64-.25.25-.06.52-.08.81-.08s.56.03.81.08c.25.06.46.14.64.25.18.11.33.24.43.39s.16.33.16.53v.31c0,.2-.05.37-.16.53-.1.15-.25.28-.43.39-.18.11-.4.19-.64.25-.25.06-.52.08-.81.08Zm0-2.08c-.15,0-.3.02-.44.05s-.26.07-.37.13-.19.12-.26.19c-.07.07-.1.15-.1.23v.17c0,.08.03.16.1.23.06.07.15.14.26.19s.23.1.37.13.29.05.44.05.3-.02.44-.05.26-.07.37-.13.19-.12.26-.19.1-.15.1-.23v-.17c0-.08-.03-.16-.1-.23s-.15-.13-.26-.19-.23-.1-.37-.13-.29-.05-.44-.05Zm1.13-2.28h-1.04v-.75h1.04v-1.6h.88v3.87h-.88v-1.52Z"/><path class="cls-3" d="m63.16,6.13v1.06h2.54v.75h-5.96v-.75h2.54v-1.06h-1.74v-3.43h.88v1.04h2.59v-1.04h.88v3.43h-1.74Zm.85-.74v-.9h-2.59v.9h2.59Z"/><path class="cls-3" d="m68.68,5.53c.15.16.31.33.49.51s.36.34.54.51l-.57.59c-.16-.15-.31-.3-.46-.44-.15-.15-.29-.29-.42-.42-.14-.13-.25-.26-.34-.37s-.15-.19-.18-.26h-.01c-.02.07-.09.16-.19.28-.11.12-.22.25-.33.37-.13.14-.27.27-.41.42-.15.14-.32.31-.52.49l-.58-.6c.4-.35.75-.7,1.05-1.03.1-.11.19-.22.26-.32.07-.1.12-.21.16-.32.04-.11.07-.22.09-.34.02-.12.03-.25.03-.39v-1.5h.9v1.5c0,.14,0,.27.02.38s.04.22.07.32c.04.1.09.2.15.3.06.1.15.21.26.32Zm.41-1.32h1.28v-1.96h.89v6.51h-.89v-3.78h-1.28v-.77Z"/><path class="cls-3" d="m75.36,7.09h-3.14V2.77h.88v1.46h1.39v-1.46h.88v4.31Zm-2.27-.74h1.39v-1.35h-1.39v1.35Zm4.17,2.42h-.89V2.26h.89v6.51Z"/><path class="cls-3" d="m83.77,7.2v.75h-5.96v-.75h5.96Zm-2.96-2.36c-.04.08-.12.16-.23.26-.12.09-.27.2-.44.32-.19.13-.41.26-.67.42-.25.15-.55.32-.88.51l-.43-.7c.26-.14.52-.29.78-.45s.49-.3.7-.44c.14-.09.26-.19.35-.28.09-.09.16-.19.22-.3.05-.1.09-.22.12-.34s.04-.26.04-.41v-.72h.9v.72c0,.15.01.29.04.41.02.12.06.23.12.34.05.11.13.21.22.3.09.09.21.19.35.28.21.14.44.29.7.44.26.16.52.31.78.45l-.43.69c-.34-.19-.63-.36-.88-.51s-.47-.29-.67-.42c-.18-.12-.32-.22-.42-.31-.1-.09-.18-.17-.21-.25h0Z"/><path class="cls-3" d="m33.39,13.83c-.04.5-.09.99-.16,1.45-.07.46-.16.9-.27,1.3.29.62.59,1.18.91,1.67.32.49.61.92.89,1.28.28.36.52.65.74.87s.37.36.45.42l-.5.7c-.1.14-.2.26-.31.36-.11.1-.25.16-.43.2-.01,0-.02,0-.04.02h-.04s-.09.02-.14.02h-.13s-.1-.03-.15-.06c-.05-.03-.1-.08-.15-.15-.42-.47-.78-.94-1.08-1.41-.3-.47-.6-1-.9-1.58-.3.61-.62,1.17-.96,1.68-.34.51-.68.98-1,1.41l-.14.14c-.08.05-.16.08-.23.09-.07.01-.14.02-.22.02-.17,0-.32-.04-.47-.13s-.27-.19-.38-.31l-.59-.63c.08-.07.29-.31.62-.7.33-.4.67-.92,1.04-1.58.35-.66.67-1.44.95-2.33.29-.89.43-1.88.43-2.96v-1.35c.22-.02.46-.02.72,0,.26.02.51.08.74.18.23.1.42.23.58.41.16.17.23.4.23.67v.29Zm4.93,11.41h-2.07v-7.49h-1.98v-1.78h1.98v-4.59c.23-.04.47-.05.71-.04.25.01.47.06.67.14.19.08.35.21.49.39s.2.4.2.67v12.69Zm3.1.36h-2.09v-14.4c.23-.04.46-.04.71-.03.25.02.47.07.68.15.2.08.37.21.5.38.13.17.2.39.2.67v13.23Z"/><path class="cls-3" d="m46.9,12.28c.6,0,1.16.12,1.67.37.52.25.96.58,1.33,1.02.38.43.68.95.9,1.54.22.59.32,1.24.32,1.93s-.11,1.36-.32,1.95c-.22.59-.52,1.11-.9,1.54-.37.43-.82.77-1.33,1.01-.52.24-1.07.36-1.67.36s-1.18-.12-1.69-.36c-.52-.24-.96-.58-1.33-1.01-.38-.43-.68-.94-.89-1.54-.21-.59-.31-1.24-.31-1.95s.1-1.34.31-1.93.51-1.11.89-1.54c.37-.43.82-.77,1.33-1.02.52-.25,1.08-.37,1.69-.37Zm0,8.01c.55,0,1.02-.3,1.4-.89.38-.59.58-1.35.58-2.26s-.19-1.67-.58-2.26c-.38-.59-.85-.89-1.4-.89s-1.03.3-1.41.89c-.38.59-.57,1.35-.57,2.26s.19,1.67.57,2.26c.38.59.85.89,1.41.89Zm8.28,5.31h-2.25v-14.4c.23-.02.47-.03.74,0,.26.02.51.07.74.15.22.08.4.21.55.38.15.17.23.38.23.65v13.23Z"/><path class="cls-3" d="m65.73,20.31c.02.22.03.43.02.64-.01.21-.05.4-.13.57-.07.17-.18.31-.33.41-.15.11-.34.16-.57.16h-7.9v-1.78h1.17v-6.16h-1.17v-1.78h8.46v1.78h-1.17v3.8c0,.4-.02.79-.06,1.18-.04.39-.12.78-.23,1.18h1.91Zm-3.87-6.16h-1.62v6.16h1.31c.14-.47.23-.89.26-1.26.03-.37.04-.74.04-1.1v-3.8Zm7.38,11.45h-2.25v-14.4c.23-.02.47-.03.74,0,.26.02.51.07.74.15.22.08.4.21.55.38.15.17.22.38.22.65v13.23Z"/><path class="cls-3" d="m70.52,15.43c0-.52.1-1,.3-1.44.2-.44.47-.83.82-1.17s.76-.6,1.22-.79c.47-.19.98-.29,1.53-.29s1.04.1,1.51.29c.47.19.88.46,1.22.79.35.34.62.73.83,1.17.2.44.31.92.31,1.44s-.1,1.01-.31,1.46c-.2.44-.48.83-.83,1.17-.35.34-.76.6-1.22.78-.47.19-.97.28-1.51.28s-1.06-.09-1.53-.28c-.47-.19-.88-.45-1.22-.78-.35-.33-.62-.73-.82-1.17-.2-.44-.3-.93-.3-1.46Zm12.33,8.21c.01.2,0,.41,0,.63-.02.22-.06.41-.13.58-.08.17-.2.31-.35.41-.15.11-.35.16-.58.16h-9.99v-5.22h2.25v3.44h8.82Zm-10.08-8.21c0,.54.15,1.01.46,1.4s.69.58,1.16.58.84-.2,1.15-.58.47-.86.47-1.4-.16-.99-.47-1.39c-.31-.4-.7-.59-1.15-.59s-.85.2-1.16.59c-.31.4-.46.86-.46,1.39Zm9.9,6.21h-2.25v-10.62c.24-.04.49-.05.76-.04.26.01.5.06.72.14.23.08.41.21.56.38s.22.4.22.68v2.21h2.16c.06.35.07.64.04.89-.04.25-.11.44-.23.58-.13.16-.28.25-.44.28s-.27.04-.31.04h-1.21v5.44Z"/></g></svg>